<svg width="66" height="143" viewBox="0 0 66 143" fill="none" xmlns="http://www.w3.org/2000/svg">
<path d="M23.1573 2.4734C24.2014 2.0177 25.1894 1.76523 26.1215 1.716L55.2808 0.175893C55.9466 0.140731 56.4932 0.378897 56.9208 0.890392C57.4745 1.26171 57.7689 1.78024 57.8041 2.44597L64.935 137.458C64.9701 138.124 64.7355 138.737 64.231 139.297C63.8527 139.718 63.3306 139.946 62.6649 139.981L34.3044 141.479C33.6387 141.514 33.029 141.346 32.4753 140.975C32.0477 140.463 31.8163 139.875 31.7812 139.209L26.2009 33.5561C26.1869 33.2898 26.0396 33.0306 25.7593 32.7783C25.4789 32.5261 25.2091 32.4736 24.9499 32.6208L5.61975 38.2482L4.83141 38.4901C3.63308 38.5534 2.99524 37.8527 2.91788 36.3881L1.41083 15.4384C1.3405 14.107 1.89044 13.1433 3.06064 12.5474L23.1573 2.4734Z" fill="#F4BC1A"/>
</svg>
