<svg width="134" height="164" viewBox="0 0 134 164" fill="none" xmlns="http://www.w3.org/2000/svg">
<path d="M73.3904 122.628C73.2028 122.955 73.2083 123.23 73.4068 123.452C73.6054 123.675 73.8976 123.734 74.2837 123.629L123.504 110.272C124.147 110.098 124.732 110.215 125.257 110.625C125.877 110.872 126.274 111.317 126.448 111.96L132.629 134.736C132.804 135.38 132.703 136.029 132.328 136.683C132.047 137.174 131.585 137.507 130.941 137.681L40.4152 162.247C39.7718 162.421 39.1404 162.385 38.5209 162.139C37.9952 161.729 37.645 161.202 37.4704 160.559L31.6565 139.134C31.3422 137.976 31.4663 136.906 32.0289 135.924C37.7942 126.623 45.2133 113.488 54.2861 96.5198L62.5675 81.2169C70.9949 65.9434 74.4579 55.54 72.9564 50.0068C71.9438 46.2751 69.6902 43.5709 66.1958 41.8942C62.8301 40.1826 58.9597 39.9204 54.5846 41.1076C50.2095 42.2949 47.0025 44.4776 44.9637 47.6558C42.9249 50.834 42.4467 54.4176 43.5292 58.4067L44.7863 63.0392C44.9609 63.6826 44.8606 64.3315 44.4856 64.9859C44.2043 65.4767 43.742 65.8094 43.0986 65.9839L15.3038 73.5264C14.6604 73.701 14.0289 73.6651 13.4095 73.4188C12.8837 73.0088 12.5336 72.4821 12.359 71.8387L9.74008 62.1877C8.29935 54.842 8.9689 47.8907 11.7487 41.3338C14.5286 34.777 19.0087 29.1402 25.1892 24.4237C31.3348 19.5784 38.654 16.0035 47.1469 13.6989C56.6692 11.1149 65.4579 10.6641 73.513 12.3466C81.6618 13.8655 88.4227 17.1426 93.7956 22.1779C99.2972 27.1783 103.043 33.3458 105.034 40.6806C106.465 45.9564 106.628 51.6458 105.521 57.7488C104.414 63.8517 102.107 70.6255 98.601 78.0702C96.1852 83.423 93.3365 88.9624 90.0549 94.6884C86.7733 100.414 82.1735 108.156 76.2556 117.913L73.3904 122.628Z" fill="#F4BC1A"/>
</svg>
