<svg width="144" height="169" viewBox="0 0 144 169" fill="none" xmlns="http://www.w3.org/2000/svg">
<path d="M112.817 102.698C112.964 109.63 111.699 116.509 109.023 123.337C106.395 130.04 102.696 135.823 97.9266 140.684C91.5361 147.487 83.7542 151.812 74.5811 153.658C65.4565 155.38 55.9288 154.295 45.9979 150.402C36.3153 146.606 28.6744 140.89 23.0754 133.253C17.525 125.492 14.6798 116.858 14.5398 107.352C14.5001 101.608 15.4619 95.6833 17.4252 89.5787C18.0091 88.0891 19.0459 87.6362 20.5356 88.2202L47.349 98.7311C48.8387 99.315 49.3536 100.376 48.8938 101.914C47.9255 105.115 47.5025 108.386 47.6246 111.728C47.6445 114.6 48.3798 117.108 49.8308 119.252C51.3303 121.272 53.4456 122.817 56.1766 123.888C61.3903 125.932 66.2252 125.106 70.6812 121.411C73.6356 118.989 76.1104 115.233 78.1055 110.143C80.052 105.178 80.8862 100.492 80.6081 96.087C79.8017 90.472 76.7296 86.6183 71.3918 84.5259C70.0263 83.9906 68.2799 83.8789 66.1527 84.1907C64.1983 84.4271 61.5527 84.9653 58.2159 85.8055C57.4493 85.9346 56.8797 85.9261 56.5073 85.7802C55.7625 85.4882 55.3499 84.8968 55.2694 84.006L49.3481 60.2031C49.219 59.4364 49.2275 58.8669 49.3734 58.4945C49.6654 57.7497 50.1947 57.3127 50.9614 57.1836L88.177 46.6385C88.5226 46.4875 88.682 46.2636 88.6552 45.9666C88.7525 45.7184 88.6149 45.5212 88.2425 45.3753L47.4637 29.39C46.843 29.1467 46.3574 28.7415 46.0069 28.1744C45.8291 27.5319 45.8619 26.9003 46.1052 26.2796L54.7183 4.30747C54.9616 3.68679 55.3424 3.26324 55.8608 3.03681C56.552 2.73491 57.2079 2.70561 57.8286 2.94892L139.014 34.7735C139.634 35.0168 140.034 35.4597 140.211 36.1023C140.562 36.6693 140.616 37.2632 140.372 37.8839L130.664 62.6491C130.226 63.7663 129.427 64.527 128.266 64.9312L98.8011 73.7886C98.4555 73.9395 98.234 74.1392 98.1367 74.3874C98.1635 74.6844 98.3388 74.9679 98.6625 75.238C107.572 81.7378 112.29 90.8911 112.817 102.698Z" fill="#F4BC1A"/>
</svg>
