<svg width="37" height="141" viewBox="0 0 37 141" fill="none" xmlns="http://www.w3.org/2000/svg">
<path d="M8.62763 91.3195C7.96097 91.3162 7.36196 91.1132 6.83061 90.7106C6.43324 90.1753 6.2362 89.5743 6.23949 88.9076L3.26554 2.49193C3.27343 0.891949 4.07736 0.0959013 5.67734 0.10379L34.077 0.24382C35.677 0.251709 36.473 1.05565 36.4651 2.65563L32.6392 89.0378C32.6359 89.7045 32.3663 90.3032 31.8303 90.8339C31.4283 91.2319 30.894 91.4292 30.2274 91.426L8.62763 91.3195ZM17.7879 139.965C12.7213 139.94 8.52922 138.32 5.21171 135.103C2.02818 131.754 0.448908 127.546 0.47389 122.48C0.498871 117.413 2.11923 113.288 5.33497 110.103C8.68404 106.92 12.8919 105.341 17.9585 105.366C23.0251 105.391 27.1505 107.011 30.3347 110.227C33.6522 113.443 35.2984 117.585 35.2735 122.651C35.2491 127.584 33.5621 131.71 30.2124 135.026C26.996 138.344 22.8545 139.99 17.7879 139.965Z" fill="#F4BC1A"/>
</svg>
