<svg width="60" height="60" viewBox="0 0 60 60" fill="none" xmlns="http://www.w3.org/2000/svg">
<path d="M29.9996 6.87502C32.2833 6.8708 34.5169 7.54385 36.418 8.80906C38.3191 10.0743 39.8024 11.8748 40.6802 13.983C41.558 16.0912 41.791 18.4124 41.3496 20.653C40.9083 22.8935 39.8124 24.9529 38.2006 26.5707C36.5888 28.1885 34.5335 29.292 32.2946 29.7417C30.0557 30.1914 27.7336 29.967 25.6222 29.097C23.5108 28.227 21.7047 26.7505 20.4325 24.8541C19.1602 22.9576 18.4789 20.7265 18.4746 18.4429V18.4214C18.4746 15.3628 19.6882 12.4292 21.8489 10.2644C24.0096 8.09967 26.941 6.88068 29.9996 6.87502Z" fill="#FFDB58"/>
<path d="M30.0009 34.2466C42.9019 34.2466 53.0722 42.8373 53.0722 47.1161V53.125H6.92969V47.0086C6.92969 42.7298 17.0999 34.2466 30.0009 34.2466Z" fill="#FFDB58"/>
</svg>
