<svg width="60" height="60" viewBox="0 0 60 60" fill="none" xmlns="http://www.w3.org/2000/svg">
<g clip-path="url(#clip0_104_17)">
<path d="M30 60C46.5685 60 60 46.5685 60 30C60 13.4315 46.5685 0 30 0C13.4315 0 0 13.4315 0 30C0 46.5685 13.4315 60 30 60Z" fill="#2DAAE1"/>
<path fill-rule="evenodd" clip-rule="evenodd" d="M23.4683 17.8549C23.4683 19.4113 22.2833 20.6708 20.4302 20.6708C18.6492 20.6708 17.4641 19.4113 17.5008 17.8549C17.4641 16.2229 18.6491 15 20.4657 15C22.2833 15 23.4328 16.2229 23.4683 17.8549ZM17.6498 41.0239V22.8953H23.2838V41.0226L17.6498 41.0239Z" fill="white"/>
<path fill-rule="evenodd" clip-rule="evenodd" d="M27.7994 28.6806C27.7994 26.4195 27.7249 24.4917 27.6504 22.8976H32.5441L32.8043 25.3811H32.9155C33.657 24.2316 35.5101 22.4907 38.5129 22.4907C42.2193 22.4907 44.9996 24.9376 44.9996 30.2736V41.0261H39.3655V30.9796C39.3655 28.6428 38.5508 27.0497 36.5119 27.0497C34.9544 27.0497 34.0283 28.1247 33.6581 29.162C33.5091 29.5333 33.4358 30.0513 33.4358 30.5716V41.0261H27.8016V28.6806H27.7994Z" fill="white"/>
</g>
<defs>
<clipPath id="clip0_104_17">
<rect width="60" height="60" fill="white"/>
</clipPath>
</defs>
</svg>
