<svg width="60" height="60" viewBox="0 0 60 60" fill="none" xmlns="http://www.w3.org/2000/svg">
<path d="M10 45L22.5 30ZM50 45L37.5 30ZM7.5 20L25.5625 32.0415C27.1663 33.1107 27.968 33.6455 28.8348 33.853C29.6008 34.0367 30.3992 34.0367 31.1652 33.853C32.032 33.6455 32.8337 33.1107 34.4375 32.0415L52.5 20M15.5 47.5H44.5C47.3002 47.5 48.7005 47.5 49.77 46.955C50.7108 46.4757 51.4757 45.7108 51.955 44.77C52.5 43.7005 52.5 42.3003 52.5 39.5V20.5C52.5 17.6997 52.5 16.2996 51.955 15.2301C51.4757 14.2892 50.7108 13.5243 49.77 13.045C48.7005 12.5 47.3002 12.5 44.5 12.5H15.5C12.6997 12.5 11.2996 12.5 10.2301 13.045C9.28923 13.5243 8.52432 14.2892 8.04497 15.2301C7.5 16.2996 7.5 17.6997 7.5 20.5V39.5C7.5 42.3003 7.5 43.7005 8.04497 44.77C8.52432 45.7108 9.28923 46.4757 10.2301 46.955C11.2996 47.5 12.6997 47.5 15.5 47.5Z" fill="#FFDB58"/>
<path d="M10 45L22.5 30M50 45L37.5 30M7.5 20L25.5625 32.0415C27.1663 33.1107 27.968 33.6455 28.8348 33.853C29.6008 34.0367 30.3992 34.0367 31.1652 33.853C32.032 33.6455 32.8337 33.1107 34.4375 32.0415L52.5 20M15.5 47.5H44.5C47.3002 47.5 48.7005 47.5 49.77 46.955C50.7108 46.4757 51.4757 45.7108 51.955 44.77C52.5 43.7005 52.5 42.3003 52.5 39.5V20.5C52.5 17.6997 52.5 16.2996 51.955 15.2301C51.4757 14.2892 50.7108 13.5243 49.77 13.045C48.7005 12.5 47.3002 12.5 44.5 12.5H15.5C12.6997 12.5 11.2996 12.5 10.2301 13.045C9.28923 13.5243 8.52432 14.2892 8.04497 15.2301C7.5 16.2996 7.5 17.6997 7.5 20.5V39.5C7.5 42.3003 7.5 43.7005 8.04497 44.77C8.52432 45.7108 9.28923 46.4757 10.2301 46.955C11.2996 47.5 12.6997 47.5 15.5 47.5Z" stroke="black" stroke-width="5" stroke-linecap="round" stroke-linejoin="round"/>
</svg>
