<svg width="61" height="61" viewBox="0 0 61 61" fill="none" xmlns="http://www.w3.org/2000/svg">
<path d="M16.8889 19.6679H28ZM16.8889 27.2519H34.6667ZM22.8528 40.2532H37.3333C41.0671 40.2532 42.9338 40.2532 44.36 39.5447C45.6144 38.9215 46.6342 37.9271 47.2733 36.7039C48 35.3132 48 33.493 48 29.8522V18.151C48 14.5103 48 12.69 47.2733 11.2994C46.6342 10.0762 45.6144 9.08177 44.36 8.45853C42.9338 7.75 41.0671 7.75 37.3333 7.75H18.6667C14.933 7.75 13.0661 7.75 11.6401 8.45853C10.3856 9.08177 9.36578 10.0762 8.72662 11.2994C8 12.69 8 14.5103 8 18.151V45.314C8 46.4687 8 47.046 8.24273 47.3424C8.45382 47.6003 8.77393 47.7504 9.11231 47.75C9.5014 47.7496 9.96371 47.389 10.8884 46.6676L16.1894 42.5324C17.2723 41.6877 17.8137 41.2654 18.4166 40.9651C18.9516 40.6985 19.521 40.5037 20.1094 40.3861C20.7726 40.2532 21.466 40.2532 22.8528 40.2532Z" fill="white"/>
<path d="M16.8889 19.6679H28M16.8889 27.2519H34.6667M22.8528 40.2532H37.3333C41.0671 40.2532 42.9338 40.2532 44.36 39.5447C45.6144 38.9215 46.6342 37.9271 47.2733 36.7039C48 35.3132 48 33.493 48 29.8522V18.151C48 14.5103 48 12.69 47.2733 11.2994C46.6342 10.0762 45.6144 9.08177 44.36 8.45853C42.9338 7.75 41.0671 7.75 37.3333 7.75H18.6667C14.933 7.75 13.0661 7.75 11.6401 8.45853C10.3856 9.08177 9.36578 10.0762 8.72662 11.2994C8 12.69 8 14.5103 8 18.151V45.314C8 46.4687 8 47.046 8.24273 47.3424C8.45382 47.6003 8.77393 47.7504 9.11231 47.75C9.5014 47.7496 9.96371 47.389 10.8884 46.6676L16.1894 42.5324C17.2723 41.6877 17.8137 41.2654 18.4166 40.9651C18.9516 40.6985 19.521 40.5037 20.1094 40.3861C20.7726 40.2532 21.466 40.2532 22.8528 40.2532Z" stroke="#F4BC1A" stroke-width="5" stroke-linecap="round" stroke-linejoin="round"/>
</svg>
