<svg width="51" height="51" viewBox="0 0 51 51" fill="none" xmlns="http://www.w3.org/2000/svg">
<path d="M3 9.25C3 30.651 20.349 48 41.75 48C42.7155 48 43.6728 47.9647 44.6208 47.8952C45.7085 47.8155 46.2523 47.7758 46.7475 47.4908C47.1575 47.2548 47.5462 46.8363 47.7517 46.41C48 45.8955 48 45.2952 48 44.095V37.0518C48 36.0423 48 35.5375 47.8338 35.105C47.6873 34.7228 47.4487 34.3825 47.1397 34.114C46.79 33.81 46.3155 33.6375 45.367 33.2925L37.35 30.3773C36.2462 29.976 35.6943 29.7752 35.1708 29.8092C34.709 29.8392 34.2648 29.997 33.8873 30.2645C33.4593 30.5677 33.1573 31.0713 32.553 32.0785L30.5 35.5C23.8753 32.4998 18.5048 27.1223 15.5 20.5L18.9216 18.447C19.9286 17.8428 20.4322 17.5407 20.7355 17.1126C21.003 16.7352 21.1608 16.2909 21.1908 15.8292C21.2248 15.3057 21.024 14.7538 20.6227 13.6501L17.7075 5.63302C17.3625 4.6844 17.19 4.21007 16.8861 3.86025C16.6175 3.55123 16.2772 3.31288 15.8951 3.16613C15.4624 3 14.9577 3 13.9483 3H6.90502C5.7047 3 5.10452 3 4.58995 3.24813C4.16375 3.45365 3.74535 3.84252 3.50925 4.25257C3.2242 4.74767 3.18437 5.29155 3.10472 6.37932C3.03532 7.32715 3 8.28445 3 9.25Z" fill="#FFDB58" stroke="black" stroke-width="5" stroke-linecap="round" stroke-linejoin="round"/>
</svg>
