<svg width="60" height="60" viewBox="0 0 60 60" fill="none" xmlns="http://www.w3.org/2000/svg">
<g clip-path="url(#clip0_104_14)">
<path d="M30 60C46.5685 60 60 46.5685 60 30C60 13.4315 46.5685 0 30 0C13.4315 0 0 13.4315 0 30C0 46.5685 13.4315 60 30 60Z" fill="#2DAAE1"/>
<path d="M49.2358 18.0666C47.8207 18.6945 46.3008 19.119 44.7028 19.3098C46.3337 18.3332 47.5832 16.7856 48.1731 14.9437C46.6238 15.8639 44.9284 16.5117 43.1603 16.859C41.7214 15.3252 39.6696 14.3677 37.3996 14.3677C33.0424 14.3677 29.5087 17.8999 29.5087 22.2597C29.5087 22.8774 29.5783 23.48 29.712 24.0586C23.1529 23.729 17.3378 20.5871 13.4454 15.813C12.7657 16.9789 12.3767 18.3346 12.3767 19.781C12.3767 22.5187 13.7701 24.9342 15.8875 26.3491C14.634 26.3103 13.4081 25.972 12.3122 25.3624V25.4622C12.3122 29.2863 15.0322 32.4749 18.6428 33.2001C17.9795 33.3819 17.2835 33.4768 16.5634 33.4768C16.0542 33.4768 15.5603 33.4286 15.0777 33.3379C16.082 36.4722 18.9967 38.7538 22.4492 38.8182C19.7481 40.9356 16.3447 42.1977 12.6483 42.1977C12.0116 42.1977 11.3824 42.1597 10.7646 42.0852C14.2578 44.3251 18.4053 45.6327 22.8623 45.6327C37.3781 45.6327 45.3168 33.607 45.3168 23.1782C45.3168 22.8358 45.3093 22.496 45.2928 22.1574C46.8395 21.0386 48.1747 19.6534 49.2358 18.0666Z" fill="white"/>
</g>
<defs>
<clipPath id="clip0_104_14">
<rect width="60" height="60" fill="white"/>
</clipPath>
</defs>
</svg>
