<svg width="60" height="60" viewBox="0 0 60 60" fill="none" xmlns="http://www.w3.org/2000/svg">
<g clip-path="url(#clip0_149_9)">
<path d="M59.9967 44.833C59.9967 45.1615 59.9867 45.874 59.967 46.4244C59.9187 47.771 59.8119 49.5087 59.6505 50.3004C59.4079 51.4902 59.0416 52.6132 58.5641 53.5479C57.999 54.6537 57.2783 55.6441 56.4219 56.499C55.5674 57.3521 54.5779 58.07 53.4738 58.6327C52.5342 59.1115 51.4041 59.478 50.2075 59.7196C49.4237 59.8778 47.699 59.9825 46.361 60.0301C45.8101 60.0498 45.0975 60.0597 44.7702 60.0597L15.2257 60.055C14.8971 60.055 14.1847 60.0449 13.6344 60.0251C12.2877 59.9769 10.5501 59.8701 9.75828 59.7087C8.56848 59.466 7.44541 59.0998 6.51072 58.6223C5.40494 58.0572 4.41453 57.3365 3.55971 56.4801C2.70658 55.6256 1.98869 54.6361 1.42602 53.532C0.94707 52.5923 0.580625 51.4623 0.339043 50.2658C0.18084 49.4819 0.0761328 47.7572 0.0284961 46.4191C0.00892578 45.8683 -0.000976562 45.1557 -0.000976562 44.8284L0.00371094 15.2838C0.00371094 14.9553 0.0137305 14.2429 0.0334766 13.6925C0.0818164 12.3458 0.188516 10.6082 0.349941 9.81645C0.592578 8.62664 0.958789 7.50357 1.43639 6.56883C2.00141 5.46311 2.72217 4.47264 3.57852 3.61781C4.43305 2.76475 5.42258 2.0468 6.52666 1.48406C7.46633 1.00523 8.59643 0.638789 9.79297 0.397207C10.5768 0.238945 12.3015 0.134238 13.6395 0.0866602C14.1904 0.0670312 14.9031 0.0571289 15.2303 0.0571289L44.7748 0.061875C45.1034 0.061875 45.8158 0.0718945 46.3662 0.0916406C47.7129 0.13998 49.4505 0.24668 50.2423 0.408105C51.432 0.650742 52.5551 1.01695 53.4898 1.49455C54.5956 2.05957 55.586 2.78033 56.4408 3.63668C57.2939 4.49121 58.0118 5.48068 58.5745 6.58482C59.0534 7.52449 59.4199 8.65453 59.6615 9.85107C59.8197 10.6349 59.9243 12.3596 59.972 13.6977C59.9916 14.2486 60.0015 14.9612 60.0015 15.2885L59.9967 44.833V44.833Z" fill="url(#paint0_linear_149_9)"/>
<path d="M45.8968 14.2529C41.8346 10.1873 36.4322 7.94711 30.6763 7.94482C18.8169 7.94482 9.16465 17.5933 9.1599 29.453C9.15838 33.2439 10.1491 36.9444 12.032 40.2062L8.97949 51.3524L20.3856 48.3614C23.5284 50.0749 27.0666 50.9779 30.6678 50.9795H30.6766C42.535 50.9795 52.1881 41.3298 52.1929 29.4701C52.1951 23.7228 49.9592 18.3186 45.8968 14.2529ZM30.6766 47.3467H30.6693C27.4603 47.3455 24.3129 46.4837 21.5671 44.8548L20.914 44.4674L14.1455 46.2423L15.9521 39.6452L15.5268 38.9687C13.7367 36.1223 12.7912 32.8323 12.7926 29.4544C12.7965 19.5972 20.8191 11.5776 30.6836 11.5776C35.4602 11.5795 39.9504 13.4416 43.3269 16.8207C46.7033 20.1999 48.5617 24.6917 48.56 29.4687C48.5561 39.3267 40.5336 47.3467 30.6766 47.3467ZM40.4861 33.9572C39.9484 33.6882 37.3053 32.3879 36.8125 32.2086C36.3197 32.0291 35.9613 31.9395 35.6028 32.4776C35.2445 33.0156 34.2142 34.2262 33.9005 34.5849C33.5869 34.9436 33.2733 34.9885 32.7357 34.7194C32.198 34.4504 30.4658 33.8829 28.4123 32.0519C26.8141 30.6269 25.7351 28.8668 25.4215 28.3287C25.1079 27.7906 25.3881 27.4998 25.6573 27.2318C25.8991 26.991 26.1949 26.6041 26.4637 26.2902C26.7325 25.9765 26.8221 25.7522 27.0013 25.3935C27.1805 25.0348 27.0909 24.7209 26.9565 24.4519C26.8221 24.1829 25.7469 21.5375 25.2988 20.4614C24.8625 19.4134 24.4192 19.5552 24.0892 19.5388C23.7759 19.5232 23.4172 19.5199 23.0588 19.5199C22.7004 19.5199 22.118 19.6544 21.6252 20.1924C21.1324 20.7305 19.7436 22.0308 19.7436 24.6761C19.7436 27.3214 21.67 29.8771 21.9388 30.2358C22.2076 30.5945 25.7297 36.0231 31.1228 38.3511C32.4056 38.9048 33.4069 39.2355 34.1878 39.4833C35.4756 39.8922 36.6476 39.8345 37.5741 39.6962C38.607 39.5419 40.7548 38.3961 41.2029 37.1406C41.6509 35.8851 41.6509 34.8091 41.5165 34.5849C41.3821 34.3608 41.0237 34.2262 40.4861 33.9572Z" fill="white"/>
</g>
<defs>
<linearGradient id="paint0_linear_149_9" x1="30.0003" y1="0.0571289" x2="30.0003" y2="60.0598" gradientUnits="userSpaceOnUse">
<stop stop-color="#61FD7D"/>
<stop offset="1" stop-color="#2BB826"/>
</linearGradient>
<clipPath id="clip0_149_9">
<rect width="60" height="60" fill="white"/>
</clipPath>
</defs>
</svg>
