<svg width="16" height="16" viewBox="0 0 16 16" fill="none" xmlns="http://www.w3.org/2000/svg">
<g clip-path="url(#clip0_74_2588)">
<path d="M8.00065 1.33325C5.42065 1.33325 3.33398 3.41992 3.33398 5.99992C3.33398 7.15992 3.66732 8.24659 4.27398 9.22659C4.90732 10.2533 5.74065 11.1333 6.38065 12.1599C6.69398 12.6599 6.92065 13.1266 7.16065 13.6666C7.33398 14.0333 7.47398 14.6666 8.00065 14.6666C8.52732 14.6666 8.66732 14.0333 8.83398 13.6666C9.08065 13.1266 9.30065 12.6599 9.61398 12.1599C10.254 11.1399 11.0873 10.2599 11.7207 9.22659C12.334 8.24659 12.6673 7.15992 12.6673 5.99992C12.6673 3.41992 10.5807 1.33325 8.00065 1.33325ZM8.00065 7.83325C7.08065 7.83325 6.33398 7.08659 6.33398 6.16659C6.33398 5.24659 7.08065 4.49992 8.00065 4.49992C8.92065 4.49992 9.66732 5.24659 9.66732 6.16659C9.66732 7.08659 8.92065 7.83325 8.00065 7.83325Z" fill="#323743"/>
</g>
<defs>
<clipPath id="clip0_74_2588">
<rect width="16" height="16" fill="white"/>
</clipPath>
</defs>
</svg>
