<svg width="16" height="16" viewBox="0 0 16 16" fill="none" xmlns="http://www.w3.org/2000/svg">
<path d="M9.88994 9.25024L8.66652 10.4571C8.02852 10.0724 7.43584 9.61718 6.89966 9.09996C6.38323 8.56289 5.92806 7.97011 5.54252 7.33253L6.74823 6.1091C6.82126 6.03495 6.87057 5.94074 6.88991 5.83848C6.90924 5.73622 6.89772 5.63051 6.8568 5.53482L5.59966 2.60453C5.55 2.48899 5.46047 2.39513 5.3474 2.34007C5.23434 2.285 5.10525 2.27239 4.98366 2.30453L2.67852 2.91424C2.5634 2.94409 2.46182 3.01212 2.39041 3.1072C2.31899 3.20229 2.28196 3.3188 2.28537 3.43767C2.43205 6.11869 3.54677 8.65535 5.42252 10.5765C7.34405 12.4529 9.8814 13.5678 12.5631 13.7142C12.6821 13.7182 12.7989 13.6815 12.8941 13.6101C12.9894 13.5388 13.0575 13.437 13.0871 13.3217L13.6962 11.0154C13.7285 10.8939 13.7161 10.7648 13.6611 10.6517C13.6061 10.5386 13.5123 10.4491 13.3968 10.3994L10.4659 9.14282C10.3702 9.10131 10.2642 9.08936 10.1615 9.1085C10.0589 9.12764 9.96433 9.177 9.88994 9.25024Z" stroke="#323743" stroke-width="1.37143" stroke-miterlimit="10" stroke-linecap="square"/>
</svg>
