<svg width="13" height="13" viewBox="0 0 13 13" fill="none" xmlns="http://www.w3.org/2000/svg">
<g clip-path="url(#clip0_23_1037)">
<path d="M10.0547 1.13597L0.721354 10.4693C0.353164 10.8375 0.353164 11.4344 0.721354 11.8026L0.721356 11.8026C1.08955 12.1708 1.6865 12.1708 2.05469 11.8026L11.388 2.46931C11.7562 2.10112 11.7562 1.50416 11.388 1.13597C11.0198 0.767783 10.4228 0.767782 10.0547 1.13597Z" fill="#9095A1"/>
<path d="M10.0553 6.46928L6.05534 10.4693C5.68715 10.8375 5.68715 11.4344 6.05534 11.8026L6.05534 11.8026C6.42353 12.1708 7.02048 12.1708 7.38867 11.8026L11.3887 7.80261C11.7569 7.43442 11.7569 6.83747 11.3887 6.46928C11.0205 6.10109 10.4235 6.10109 10.0553 6.46928Z" fill="#9095A1"/>
</g>
<defs>
<clipPath id="clip0_23_1037">
<rect width="12" height="12" fill="white" transform="translate(0.0546875 0.469238)"/>
</clipPath>
</defs>
</svg>
